<svg xmlns="http://www.w3.org/2000/svg" viewBox="0 0 300 200">
<rect width="300" height="200" fill="#CC0000"/>
<rect x="0" y="0" width="150" height="100" fill="#012169"/>
<polygon points="0,0 25,0 150,87 150,100 125,100 0,13" fill="#FFFFFF"/>
<polygon points="125,0 150,0 150,13 25,100 0,100 0,87" fill="#FFFFFF"/>
<polygon points="0,0 12,0 150,92 150,100 138,100 0,8" fill="#C8102E"/>
<polygon points="138,0 150,0 150,8 12,100 0,100 0,92" fill="#C8102E"/>
<rect x="0" y="36" width="150" height="28" fill="#FFFFFF"/>
<rect x="61" y="0" width="19" height="100" fill="#FFFFFF"/>
<rect x="0" y="42" width="150" height="16" fill="#C8102E"/>
<rect x="66" y="0" width="9" height="100" fill="#C8102E"/></svg>