<svg xmlns="http://www.w3.org/2000/svg" viewBox="0 0 300 200">
<rect x="0" y="0.00" width="300" height="66.67" fill="#FF9933"/><rect x="0" y="66.67" width="300" height="66.67" fill="#FFFFFF"/><rect x="0" y="133.33" width="300" height="66.67" fill="#138808"/>
<circle cx="150" cy="100" r="26" fill="none" stroke="#000080" stroke-width="3"/>
<line x1="150.0" y1="91.0" x2="150.0" y2="74.0" stroke="#000080" stroke-width="1.5"/><line x1="152.3" y1="91.3" x2="156.7" y2="74.9" stroke="#000080" stroke-width="1.5"/><line x1="154.5" y1="92.2" x2="163.0" y2="77.5" stroke="#000080" stroke-width="1.5"/><line x1="156.4" y1="93.6" x2="168.4" y2="81.6" stroke="#000080" stroke-width="1.5"/><line x1="157.8" y1="95.5" x2="172.5" y2="87.0" stroke="#000080" stroke-width="1.5"/><line x1="158.7" y1="97.7" x2="175.1" y2="93.3" stroke="#000080" stroke-width="1.5"/><line x1="159.0" y1="100.0" x2="176.0" y2="100.0" stroke="#000080" stroke-width="1.5"/><line x1="158.7" y1="102.3" x2="175.1" y2="106.7" stroke="#000080" stroke-width="1.5"/><line x1="157.8" y1="104.5" x2="172.5" y2="113.0" stroke="#000080" stroke-width="1.5"/><line x1="156.4" y1="106.4" x2="168.4" y2="118.4" stroke="#000080" stroke-width="1.5"/><line x1="154.5" y1="107.8" x2="163.0" y2="122.5" stroke="#000080" stroke-width="1.5"/><line x1="152.3" y1="108.7" x2="156.7" y2="125.1" stroke="#000080" stroke-width="1.5"/><line x1="150.0" y1="109.0" x2="150.0" y2="126.0" stroke="#000080" stroke-width="1.5"/><line x1="147.7" y1="108.7" x2="143.3" y2="125.1" stroke="#000080" stroke-width="1.5"/><line x1="145.5" y1="107.8" x2="137.0" y2="122.5" stroke="#000080" stroke-width="1.5"/><line x1="143.6" y1="106.4" x2="131.6" y2="118.4" stroke="#000080" stroke-width="1.5"/><line x1="142.2" y1="104.5" x2="127.5" y2="113.0" stroke="#000080" stroke-width="1.5"/><line x1="141.3" y1="102.3" x2="124.9" y2="106.7" stroke="#000080" stroke-width="1.5"/><line x1="141.0" y1="100.0" x2="124.0" y2="100.0" stroke="#000080" stroke-width="1.5"/><line x1="141.3" y1="97.7" x2="124.9" y2="93.3" stroke="#000080" stroke-width="1.5"/><line x1="142.2" y1="95.5" x2="127.5" y2="87.0" stroke="#000080" stroke-width="1.5"/><line x1="143.6" y1="93.6" x2="131.6" y2="81.6" stroke="#000080" stroke-width="1.5"/><line x1="145.5" y1="92.2" x2="137.0" y2="77.5" stroke="#000080" stroke-width="1.5"/><line x1="147.7" y1="91.3" x2="143.3" y2="74.9" stroke="#000080" stroke-width="1.5"/></svg>