<svg xmlns="http://www.w3.org/2000/svg" viewBox="0 0 300 200">
<rect x="0" y="0.00" width="300" height="66.67" fill="#74ACDF"/><rect x="0" y="66.67" width="300" height="66.67" fill="#FFFFFF"/><rect x="0" y="133.33" width="300" height="66.67" fill="#74ACDF"/>
<circle cx="150" cy="100" r="22" fill="#F6B40E"/>
<line x1="174.0" y1="100.0" x2="190.0" y2="100.0" stroke="#F6B40E" stroke-width="5"/><line x1="172.2" y1="109.2" x2="183.3" y2="113.8" stroke="#F6B40E" stroke-width="3"/><line x1="167.0" y1="117.0" x2="178.3" y2="128.3" stroke="#F6B40E" stroke-width="5"/><line x1="159.2" y1="122.2" x2="163.8" y2="133.3" stroke="#F6B40E" stroke-width="3"/><line x1="150.0" y1="124.0" x2="150.0" y2="140.0" stroke="#F6B40E" stroke-width="5"/><line x1="140.8" y1="122.2" x2="136.2" y2="133.3" stroke="#F6B40E" stroke-width="3"/><line x1="133.0" y1="117.0" x2="121.7" y2="128.3" stroke="#F6B40E" stroke-width="5"/><line x1="127.8" y1="109.2" x2="116.7" y2="113.8" stroke="#F6B40E" stroke-width="3"/><line x1="126.0" y1="100.0" x2="110.0" y2="100.0" stroke="#F6B40E" stroke-width="5"/><line x1="127.8" y1="90.8" x2="116.7" y2="86.2" stroke="#F6B40E" stroke-width="3"/><line x1="133.0" y1="83.0" x2="121.7" y2="71.7" stroke="#F6B40E" stroke-width="5"/><line x1="140.8" y1="77.8" x2="136.2" y2="66.7" stroke="#F6B40E" stroke-width="3"/><line x1="150.0" y1="76.0" x2="150.0" y2="60.0" stroke="#F6B40E" stroke-width="5"/><line x1="159.2" y1="77.8" x2="163.8" y2="66.7" stroke="#F6B40E" stroke-width="3"/><line x1="167.0" y1="83.0" x2="178.3" y2="71.7" stroke="#F6B40E" stroke-width="5"/><line x1="172.2" y1="90.8" x2="183.3" y2="86.2" stroke="#F6B40E" stroke-width="3"/>
<circle cx="150" cy="100" r="14" fill="#85340A"/>
<circle cx="150" cy="100" r="10" fill="#F6B40E"/></svg>