<svg xmlns="http://www.w3.org/2000/svg" viewBox="0 0 300 200">
<rect width="300" height="200" fill="#012169"/>
<polygon points="0,0 50,0 300,175 300,200 250,200 0,25" fill="#FFFFFF"/>
<polygon points="250,0 300,0 300,25 50,200 0,200 0,175" fill="#FFFFFF"/>
<polygon points="0,0 25,0 300,170 300,200 275,200 0,30" fill="#C8102E"/>
<polygon points="275,0 300,0 300,30 25,200 0,200 0,170" fill="#C8102E"/>
<rect x="0" y="72" width="300" height="56" fill="#FFFFFF"/>
<rect x="114" y="0" width="72" height="200" fill="#FFFFFF"/>
<rect x="0" y="84" width="300" height="32" fill="#C8102E"/>
<rect x="126" y="0" width="48" height="200" fill="#C8102E"/></svg>