<svg xmlns="http://www.w3.org/2000/svg" viewBox="0 0 300 200"><rect x="0" y="0.00" width="300" height="15.38" fill="#B22234"/><rect x="0" y="15.38" width="300" height="15.38" fill="#FFFFFF"/><rect x="0" y="30.77" width="300" height="15.38" fill="#B22234"/><rect x="0" y="46.15" width="300" height="15.38" fill="#FFFFFF"/><rect x="0" y="61.54" width="300" height="15.38" fill="#B22234"/><rect x="0" y="76.92" width="300" height="15.38" fill="#FFFFFF"/><rect x="0" y="92.31" width="300" height="15.38" fill="#B22234"/><rect x="0" y="107.69" width="300" height="15.38" fill="#FFFFFF"/><rect x="0" y="123.08" width="300" height="15.38" fill="#B22234"/><rect x="0" y="138.46" width="300" height="15.38" fill="#FFFFFF"/><rect x="0" y="153.85" width="300" height="15.38" fill="#B22234"/><rect x="0" y="169.23" width="300" height="15.38" fill="#FFFFFF"/><rect x="0" y="184.62" width="300" height="15.38" fill="#B22234"/><rect x="0" y="0" width="120" height="107.69" fill="#3C3B6E"/><polygon points="9.2,9.2 10.0,11.6 12.6,11.6 10.5,13.1 11.3,15.5 9.2,14.0 7.2,15.5 8.0,13.1 5.9,11.6 8.4,11.6" fill="#FFFFFF"/><polygon points="27.7,9.2 28.5,11.6 31.0,11.6 29.0,13.1 29.7,15.5 27.7,14.0 25.6,15.5 26.4,13.1 24.4,11.6 26.9,11.6" fill="#FFFFFF"/><polygon points="46.2,9.2 46.9,11.6 49.5,11.6 47.4,13.1 48.2,15.5 46.2,14.0 44.1,15.5 44.9,13.1 42.8,11.6 45.4,11.6" fill="#FFFFFF"/><polygon points="64.6,9.2 65.4,11.6 67.9,11.6 65.9,13.1 66.7,15.5 64.6,14.0 62.6,15.5 63.3,13.1 61.3,11.6 63.8,11.6" fill="#FFFFFF"/><polygon points="83.1,9.2 83.9,11.6 86.4,11.6 84.3,13.1 85.1,15.5 83.1,14.0 81.0,15.5 81.8,13.1 79.7,11.6 82.3,11.6" fill="#FFFFFF"/><polygon points="101.5,9.2 102.3,11.6 104.9,11.6 102.8,13.1 103.6,15.5 101.5,14.0 99.5,15.5 100.3,13.1 98.2,11.6 100.8,11.6" fill="#FFFFFF"/><polygon points="9.2,21.8 10.0,24.3 12.6,24.3 10.5,25.8 11.3,28.2 9.2,26.7 7.2,28.2 8.0,25.8 5.9,24.3 8.4,24.3" fill="#FFFFFF"/><polygon points="27.7,21.8 28.5,24.3 31.0,24.3 29.0,25.8 29.7,28.2 27.7,26.7 25.6,28.2 26.4,25.8 24.4,24.3 26.9,24.3" fill="#FFFFFF"/><polygon points="46.2,21.8 46.9,24.3 49.5,24.3 47.4,25.8 48.2,28.2 46.2,26.7 44.1,28.2 44.9,25.8 42.8,24.3 45.4,24.3" fill="#FFFFFF"/><polygon points="64.6,21.8 65.4,24.3 67.9,24.3 65.9,25.8 66.7,28.2 64.6,26.7 62.6,28.2 63.3,25.8 61.3,24.3 63.8,24.3" fill="#FFFFFF"/><polygon points="83.1,21.8 83.9,24.3 86.4,24.3 84.3,25.8 85.1,28.2 83.1,26.7 81.0,28.2 81.8,25.8 79.7,24.3 82.3,24.3" fill="#FFFFFF"/><polygon points="101.5,21.8 102.3,24.3 104.9,24.3 102.8,25.8 103.6,28.2 101.5,26.7 99.5,28.2 100.3,25.8 98.2,24.3 100.8,24.3" fill="#FFFFFF"/><polygon points="9.2,34.5 10.0,36.9 12.6,36.9 10.5,38.4 11.3,40.8 9.2,39.3 7.2,40.8 8.0,38.4 5.9,36.9 8.4,36.9" fill="#FFFFFF"/><polygon points="27.7,34.5 28.5,36.9 31.0,36.9 29.0,38.4 29.7,40.8 27.7,39.3 25.6,40.8 26.4,38.4 24.4,36.9 26.9,36.9" fill="#FFFFFF"/><polygon points="46.2,34.5 46.9,36.9 49.5,36.9 47.4,38.4 48.2,40.8 46.2,39.3 44.1,40.8 44.9,38.4 42.8,36.9 45.4,36.9" fill="#FFFFFF"/><polygon points="64.6,34.5 65.4,36.9 67.9,36.9 65.9,38.4 66.7,40.8 64.6,39.3 62.6,40.8 63.3,38.4 61.3,36.9 63.8,36.9" fill="#FFFFFF"/><polygon points="83.1,34.5 83.9,36.9 86.4,36.9 84.3,38.4 85.1,40.8 83.1,39.3 81.0,40.8 81.8,38.4 79.7,36.9 82.3,36.9" fill="#FFFFFF"/><polygon points="101.5,34.5 102.3,36.9 104.9,36.9 102.8,38.4 103.6,40.8 101.5,39.3 99.5,40.8 100.3,38.4 98.2,36.9 100.8,36.9" fill="#FFFFFF"/><polygon points="9.2,47.2 10.0,49.6 12.6,49.6 10.5,51.1 11.3,53.5 9.2,52.0 7.2,53.5 8.0,51.1 5.9,49.6 8.4,49.6" fill="#FFFFFF"/><polygon points="27.7,47.2 28.5,49.6 31.0,49.6 29.0,51.1 29.7,53.5 27.7,52.0 25.6,53.5 26.4,51.1 24.4,49.6 26.9,49.6" fill="#FFFFFF"/><polygon points="46.2,47.2 46.9,49.6 49.5,49.6 47.4,51.1 48.2,53.5 46.2,52.0 44.1,53.5 44.9,51.1 42.8,49.6 45.4,49.6" fill="#FFFFFF"/><polygon points="64.6,47.2 65.4,49.6 67.9,49.6 65.9,51.1 66.7,53.5 64.6,52.0 62.6,53.5 63.3,51.1 61.3,49.6 63.8,49.6" fill="#FFFFFF"/><polygon points="83.1,47.2 83.9,49.6 86.4,49.6 84.3,51.1 85.1,53.5 83.1,52.0 81.0,53.5 81.8,51.1 79.7,49.6 82.3,49.6" fill="#FFFFFF"/><polygon points="101.5,47.2 102.3,49.6 104.9,49.6 102.8,51.1 103.6,53.5 101.5,52.0 99.5,53.5 100.3,51.1 98.2,49.6 100.8,49.6" fill="#FFFFFF"/><polygon points="9.2,59.8 10.0,62.3 12.6,62.3 10.5,63.8 11.3,66.2 9.2,64.7 7.2,66.2 8.0,63.8 5.9,62.3 8.4,62.3" fill="#FFFFFF"/><polygon points="27.7,59.8 28.5,62.3 31.0,62.3 29.0,63.8 29.7,66.2 27.7,64.7 25.6,66.2 26.4,63.8 24.4,62.3 26.9,62.3" fill="#FFFFFF"/><polygon points="46.2,59.8 46.9,62.3 49.5,62.3 47.4,63.8 48.2,66.2 46.2,64.7 44.1,66.2 44.9,63.8 42.8,62.3 45.4,62.3" fill="#FFFFFF"/><polygon points="64.6,59.8 65.4,62.3 67.9,62.3 65.9,63.8 66.7,66.2 64.6,64.7 62.6,66.2 63.3,63.8 61.3,62.3 63.8,62.3" fill="#FFFFFF"/><polygon points="83.1,59.8 83.9,62.3 86.4,62.3 84.3,63.8 85.1,66.2 83.1,64.7 81.0,66.2 81.8,63.8 79.7,62.3 82.3,62.3" fill="#FFFFFF"/><polygon points="101.5,59.8 102.3,62.3 104.9,62.3 102.8,63.8 103.6,66.2 101.5,64.7 99.5,66.2 100.3,63.8 98.2,62.3 100.8,62.3" fill="#FFFFFF"/><polygon points="9.2,72.5 10.0,74.9 12.6,74.9 10.5,76.4 11.3,78.8 9.2,77.4 7.2,78.8 8.0,76.4 5.9,74.9 8.4,74.9" fill="#FFFFFF"/><polygon points="27.7,72.5 28.5,74.9 31.0,74.9 29.0,76.4 29.7,78.8 27.7,77.4 25.6,78.8 26.4,76.4 24.4,74.9 26.9,74.9" fill="#FFFFFF"/><polygon points="46.2,72.5 46.9,74.9 49.5,74.9 47.4,76.4 48.2,78.8 46.2,77.4 44.1,78.8 44.9,76.4 42.8,74.9 45.4,74.9" fill="#FFFFFF"/><polygon points="64.6,72.5 65.4,74.9 67.9,74.9 65.9,76.4 66.7,78.8 64.6,77.4 62.6,78.8 63.3,76.4 61.3,74.9 63.8,74.9" fill="#FFFFFF"/><polygon points="83.1,72.5 83.9,74.9 86.4,74.9 84.3,76.4 85.1,78.8 83.1,77.4 81.0,78.8 81.8,76.4 79.7,74.9 82.3,74.9" fill="#FFFFFF"/><polygon points="101.5,72.5 102.3,74.9 104.9,74.9 102.8,76.4 103.6,78.8 101.5,77.4 99.5,78.8 100.3,76.4 98.2,74.9 100.8,74.9" fill="#FFFFFF"/><polygon points="9.2,85.2 10.0,87.6 12.6,87.6 10.5,89.1 11.3,91.5 9.2,90.0 7.2,91.5 8.0,89.1 5.9,87.6 8.4,87.6" fill="#FFFFFF"/><polygon points="27.7,85.2 28.5,87.6 31.0,87.6 29.0,89.1 29.7,91.5 27.7,90.0 25.6,91.5 26.4,89.1 24.4,87.6 26.9,87.6" fill="#FFFFFF"/><polygon points="46.2,85.2 46.9,87.6 49.5,87.6 47.4,89.1 48.2,91.5 46.2,90.0 44.1,91.5 44.9,89.1 42.8,87.6 45.4,87.6" fill="#FFFFFF"/><polygon points="64.6,85.2 65.4,87.6 67.9,87.6 65.9,89.1 66.7,91.5 64.6,90.0 62.6,91.5 63.3,89.1 61.3,87.6 63.8,87.6" fill="#FFFFFF"/><polygon points="83.1,85.2 83.9,87.6 86.4,87.6 84.3,89.1 85.1,91.5 83.1,90.0 81.0,91.5 81.8,89.1 79.7,87.6 82.3,87.6" fill="#FFFFFF"/><polygon points="101.5,85.2 102.3,87.6 104.9,87.6 102.8,89.1 103.6,91.5 101.5,90.0 99.5,91.5 100.3,89.1 98.2,87.6 100.8,87.6" fill="#FFFFFF"/><polygon points="9.2,97.9 10.0,100.3 12.6,100.3 10.5,101.8 11.3,104.2 9.2,102.7 7.2,104.2 8.0,101.8 5.9,100.3 8.4,100.3" fill="#FFFFFF"/><polygon points="27.7,97.9 28.5,100.3 31.0,100.3 29.0,101.8 29.7,104.2 27.7,102.7 25.6,104.2 26.4,101.8 24.4,100.3 26.9,100.3" fill="#FFFFFF"/><polygon points="46.2,97.9 46.9,100.3 49.5,100.3 47.4,101.8 48.2,104.2 46.2,102.7 44.1,104.2 44.9,101.8 42.8,100.3 45.4,100.3" fill="#FFFFFF"/><polygon points="64.6,97.9 65.4,100.3 67.9,100.3 65.9,101.8 66.7,104.2 64.6,102.7 62.6,104.2 63.3,101.8 61.3,100.3 63.8,100.3" fill="#FFFFFF"/><polygon points="83.1,97.9 83.9,100.3 86.4,100.3 84.3,101.8 85.1,104.2 83.1,102.7 81.0,104.2 81.8,101.8 79.7,100.3 82.3,100.3" fill="#FFFFFF"/><polygon points="101.5,97.9 102.3,100.3 104.9,100.3 102.8,101.8 103.6,104.2 101.5,102.7 99.5,104.2 100.3,101.8 98.2,100.3 100.8,100.3" fill="#FFFFFF"/></svg>