<svg xmlns="http://www.w3.org/2000/svg" viewBox="0 0 300 200">
<rect width="300" height="200" fill="#00008B"/>

<rect width="150" height="100" fill="#012169"/>
<polygon points="0,0 25,0 150,87 150,100 125,100 0,13" fill="#FFFFFF"/>
<polygon points="125,0 150,0 150,13 25,100 0,100 0,87" fill="#FFFFFF"/>
<polygon points="0,0 12,0 150,92 150,100 138,100 0,8" fill="#C8102E"/>
<polygon points="138,0 150,0 150,8 12,100 0,100 0,92" fill="#C8102E"/>
<rect x="0" y="36" width="150" height="28" fill="#FFFFFF"/>
<rect x="61" y="0" width="19" height="100" fill="#FFFFFF"/>
<rect x="0" y="42" width="150" height="16" fill="#C8102E"/>
<rect x="66" y="0" width="9" height="100" fill="#C8102E"/>
<polygon points="50.0,131.0 53.1,140.7 63.3,140.7 55.1,146.7 58.2,156.3 50.0,150.3 41.8,156.3 44.9,146.7 36.7,140.7 46.9,140.7" fill="#FFFFFF"/>
<polygon points="220.0,55.0 221.6,59.8 226.7,59.8 222.5,62.8 224.1,67.7 220.0,64.7 215.9,67.7 217.5,62.8 213.3,59.8 218.4,59.8" fill="#FFFFFF"/><polygon points="258.0,75.0 259.6,79.8 264.7,79.8 260.5,82.8 262.1,87.7 258.0,84.7 253.9,87.7 255.5,82.8 251.3,79.8 256.4,79.8" fill="#FFFFFF"/><polygon points="240.0,111.0 241.6,115.8 246.7,115.8 242.5,118.8 244.1,123.7 240.0,120.7 235.9,123.7 237.5,118.8 233.3,115.8 238.4,115.8" fill="#FFFFFF"/><polygon points="202.0,101.0 203.6,105.8 208.7,105.8 204.5,108.8 206.1,113.7 202.0,110.7 197.9,113.7 199.5,108.8 195.3,105.8 200.4,105.8" fill="#FFFFFF"/><polygon points="252.0,136.0 253.6,140.8 258.7,140.8 254.5,143.8 256.1,148.7 252.0,145.7 247.9,148.7 249.5,143.8 245.3,140.8 250.4,140.8" fill="#FFFFFF"/></svg>