<svg xmlns="http://www.w3.org/2000/svg" viewBox="0 0 300 200">
<rect width="300" height="200" fill="#FE0000"/>
<rect x="0" y="0" width="150" height="100" fill="#27348B"/>
<circle cx="75" cy="50" r="30" fill="#FFFFFF"/>
<polygon points="75.0,30.0 79.5,43.8 94.0,43.8 82.3,52.4 86.8,66.2 75.0,57.6 63.2,66.2 67.7,52.4 56.0,43.8 70.5,43.8" fill="#27348B"/>
<rect x="73" y="32" width="4" height="18" fill="#27348B" transform="rotate(0,75,50)"/><rect x="73" y="32" width="4" height="18" fill="#27348B" transform="rotate(30,75,50)"/><rect x="73" y="32" width="4" height="18" fill="#27348B" transform="rotate(60,75,50)"/><rect x="73" y="32" width="4" height="18" fill="#27348B" transform="rotate(90,75,50)"/><rect x="73" y="32" width="4" height="18" fill="#27348B" transform="rotate(120,75,50)"/><rect x="73" y="32" width="4" height="18" fill="#27348B" transform="rotate(150,75,50)"/><rect x="73" y="32" width="4" height="18" fill="#27348B" transform="rotate(180,75,50)"/><rect x="73" y="32" width="4" height="18" fill="#27348B" transform="rotate(210,75,50)"/><rect x="73" y="32" width="4" height="18" fill="#27348B" transform="rotate(240,75,50)"/><rect x="73" y="32" width="4" height="18" fill="#27348B" transform="rotate(270,75,50)"/><rect x="73" y="32" width="4" height="18" fill="#27348B" transform="rotate(300,75,50)"/><rect x="73" y="32" width="4" height="18" fill="#27348B" transform="rotate(330,75,50)"/></svg>