<svg xmlns="http://www.w3.org/2000/svg" viewBox="0 0 300 200">
<rect width="300" height="200" fill="#009C3B"/>
<polygon points="150,15 278,100 150,185 22,100" fill="#FEDF00"/>
<circle cx="150" cy="100" r="58" fill="#002776"/>
<path d="M 95,85 A 55,55 0 0,1 205,85" fill="none" stroke="#FFFFFF" stroke-width="10"/>
<text x="150" y="110" text-anchor="middle" fill="#009C3B" font-size="11" font-weight="bold" font-family="sans-serif" letter-spacing="2">ORDEM E PROGRESSO</text>
<polygon points="108.0,78.0 109.1,81.5 112.8,81.5 109.8,83.6 110.9,87.0 108.0,84.9 105.1,87.0 106.2,83.6 103.2,81.5 106.9,81.5" fill="#FFFFFF"/><polygon points="120.0,67.0 121.1,70.5 124.8,70.5 121.8,72.6 122.9,76.0 120.0,73.9 117.1,76.0 118.2,72.6 115.2,70.5 118.9,70.5" fill="#FFFFFF"/><polygon points="134.0,59.0 135.1,62.5 138.8,62.5 135.8,64.6 136.9,68.0 134.0,65.9 131.1,68.0 132.2,64.6 129.2,62.5 132.9,62.5" fill="#FFFFFF"/><polygon points="150.0,55.0 151.1,58.5 154.8,58.5 151.8,60.6 152.9,64.0 150.0,61.9 147.1,64.0 148.2,60.6 145.2,58.5 148.9,58.5" fill="#FFFFFF"/><polygon points="166.0,59.0 167.1,62.5 170.8,62.5 167.8,64.6 168.9,68.0 166.0,65.9 163.1,68.0 164.2,64.6 161.2,62.5 164.9,62.5" fill="#FFFFFF"/><polygon points="180.0,67.0 181.1,70.5 184.8,70.5 181.8,72.6 182.9,76.0 180.0,73.9 177.1,76.0 178.2,72.6 175.2,70.5 178.9,70.5" fill="#FFFFFF"/><polygon points="192.0,78.0 193.1,81.5 196.8,81.5 193.8,83.6 194.9,87.0 192.0,84.9 189.1,87.0 190.2,83.6 187.2,81.5 190.9,81.5" fill="#FFFFFF"/></svg>