<svg xmlns="http://www.w3.org/2000/svg" viewBox="0 0 300 200">
<rect width="300" height="200" fill="#007A3D"/>
<circle cx="150" cy="90" r="35" fill="none" stroke="#FFFFFF" stroke-width="6"/>
<path d="M 135,90 A 35,35 0 0,1 165,90" fill="none" stroke="#FFFFFF" stroke-width="6"/>
<polygon points="130.0,122.0 131.8,127.5 137.6,127.5 132.9,130.9 134.7,136.5 130.0,133.1 125.3,136.5 127.1,130.9 122.4,127.5 128.2,127.5" fill="#FFFFFF"/><polygon points="150.0,122.0 151.8,127.5 157.6,127.5 152.9,130.9 154.7,136.5 150.0,133.1 145.3,136.5 147.1,130.9 142.4,127.5 148.2,127.5" fill="#FFFFFF"/><polygon points="170.0,122.0 171.8,127.5 177.6,127.5 172.9,130.9 174.7,136.5 170.0,133.1 165.3,136.5 167.1,130.9 162.4,127.5 168.2,127.5" fill="#FFFFFF"/></svg>