<svg xmlns="http://www.w3.org/2000/svg" viewBox="0 0 300 200"><rect x="0" y="0.00" width="300" height="15.38" fill="#B22234"/><rect x="0" y="15.38" width="300" height="15.38" fill="#FFFFFF"/><rect x="0" y="30.77" width="300" height="15.38" fill="#B22234"/><rect x="0" y="46.15" width="300" height="15.38" fill="#FFFFFF"/><rect x="0" y="61.54" width="300" height="15.38" fill="#B22234"/><rect x="0" y="76.92" width="300" height="15.38" fill="#FFFFFF"/><rect x="0" y="92.31" width="300" height="15.38" fill="#B22234"/><rect x="0" y="107.69" width="300" height="15.38" fill="#FFFFFF"/><rect x="0" y="123.08" width="300" height="15.38" fill="#B22234"/><rect x="0" y="138.46" width="300" height="15.38" fill="#FFFFFF"/><rect x="0" y="153.85" width="300" height="15.38" fill="#B22234"/><rect x="0" y="169.23" width="300" height="15.38" fill="#FFFFFF"/><rect x="0" y="184.62" width="300" height="15.38" fill="#B22234"/><rect x="0" y="0" width="120" height="107.69" fill="#3C3B6E"/><polygon points="9.2,7.8 10.0,10.3 12.6,10.3 10.5,11.7 11.3,14.2 9.2,12.7 7.2,14.2 8.0,11.7 5.9,10.3 8.4,10.3" fill="#FFFFFF"/><polygon points="27.7,7.8 28.5,10.3 31.0,10.3 29.0,11.7 29.7,14.2 27.7,12.7 25.6,14.2 26.4,11.7 24.4,10.3 26.9,10.3" fill="#FFFFFF"/><polygon points="46.2,7.8 46.9,10.3 49.5,10.3 47.4,11.7 48.2,14.2 46.2,12.7 44.1,14.2 44.9,11.7 42.8,10.3 45.4,10.3" fill="#FFFFFF"/><polygon points="64.6,7.8 65.4,10.3 67.9,10.3 65.9,11.7 66.7,14.2 64.6,12.7 62.6,14.2 63.3,11.7 61.3,10.3 63.8,10.3" fill="#FFFFFF"/><polygon points="83.1,7.8 83.9,10.3 86.4,10.3 84.3,11.7 85.1,14.2 83.1,12.7 81.0,14.2 81.8,11.7 79.7,10.3 82.3,10.3" fill="#FFFFFF"/><polygon points="101.5,7.8 102.3,10.3 104.9,10.3 102.8,11.7 103.6,14.2 101.5,12.7 99.5,14.2 100.3,11.7 98.2,10.3 100.8,10.3" fill="#FFFFFF"/><polygon points="18.5,19.2 19.2,21.6 21.8,21.6 19.7,23.1 20.5,25.5 18.5,24.0 16.4,25.5 17.2,23.1 15.1,21.6 17.7,21.6" fill="#FFFFFF"/><polygon points="36.9,19.2 37.7,21.6 40.3,21.6 38.2,23.1 39.0,25.5 36.9,24.0 34.9,25.5 35.7,23.1 33.6,21.6 36.1,21.6" fill="#FFFFFF"/><polygon points="55.4,19.2 56.2,21.6 58.7,21.6 56.7,23.1 57.4,25.5 55.4,24.0 53.3,25.5 54.1,23.1 52.1,21.6 54.6,21.6" fill="#FFFFFF"/><polygon points="73.8,19.2 74.6,21.6 77.2,21.6 75.1,23.1 75.9,25.5 73.8,24.0 71.8,25.5 72.6,23.1 70.5,21.6 73.1,21.6" fill="#FFFFFF"/><polygon points="92.3,19.2 93.1,21.6 95.6,21.6 93.6,23.1 94.4,25.5 92.3,24.0 90.3,25.5 91.0,23.1 89.0,21.6 91.5,21.6" fill="#FFFFFF"/><polygon points="9.2,30.5 10.0,32.9 12.6,32.9 10.5,34.4 11.3,36.8 9.2,35.3 7.2,36.8 8.0,34.4 5.9,32.9 8.4,32.9" fill="#FFFFFF"/><polygon points="27.7,30.5 28.5,32.9 31.0,32.9 29.0,34.4 29.7,36.8 27.7,35.3 25.6,36.8 26.4,34.4 24.4,32.9 26.9,32.9" fill="#FFFFFF"/><polygon points="46.2,30.5 46.9,32.9 49.5,32.9 47.4,34.4 48.2,36.8 46.2,35.3 44.1,36.8 44.9,34.4 42.8,32.9 45.4,32.9" fill="#FFFFFF"/><polygon points="64.6,30.5 65.4,32.9 67.9,32.9 65.9,34.4 66.7,36.8 64.6,35.3 62.6,36.8 63.3,34.4 61.3,32.9 63.8,32.9" fill="#FFFFFF"/><polygon points="83.1,30.5 83.9,32.9 86.4,32.9 84.3,34.4 85.1,36.8 83.1,35.3 81.0,36.8 81.8,34.4 79.7,32.9 82.3,32.9" fill="#FFFFFF"/><polygon points="101.5,30.5 102.3,32.9 104.9,32.9 102.8,34.4 103.6,36.8 101.5,35.3 99.5,36.8 100.3,34.4 98.2,32.9 100.8,32.9" fill="#FFFFFF"/><polygon points="18.5,41.8 19.2,44.3 21.8,44.3 19.7,45.8 20.5,48.2 18.5,46.7 16.4,48.2 17.2,45.8 15.1,44.3 17.7,44.3" fill="#FFFFFF"/><polygon points="36.9,41.8 37.7,44.3 40.3,44.3 38.2,45.8 39.0,48.2 36.9,46.7 34.9,48.2 35.7,45.8 33.6,44.3 36.1,44.3" fill="#FFFFFF"/><polygon points="55.4,41.8 56.2,44.3 58.7,44.3 56.7,45.8 57.4,48.2 55.4,46.7 53.3,48.2 54.1,45.8 52.1,44.3 54.6,44.3" fill="#FFFFFF"/><polygon points="73.8,41.8 74.6,44.3 77.2,44.3 75.1,45.8 75.9,48.2 73.8,46.7 71.8,48.2 72.6,45.8 70.5,44.3 73.1,44.3" fill="#FFFFFF"/><polygon points="92.3,41.8 93.1,44.3 95.6,44.3 93.6,45.8 94.4,48.2 92.3,46.7 90.3,48.2 91.0,45.8 89.0,44.3 91.5,44.3" fill="#FFFFFF"/><polygon points="9.2,53.2 10.0,55.6 12.6,55.6 10.5,57.1 11.3,59.5 9.2,58.0 7.2,59.5 8.0,57.1 5.9,55.6 8.4,55.6" fill="#FFFFFF"/><polygon points="27.7,53.2 28.5,55.6 31.0,55.6 29.0,57.1 29.7,59.5 27.7,58.0 25.6,59.5 26.4,57.1 24.4,55.6 26.9,55.6" fill="#FFFFFF"/><polygon points="46.2,53.2 46.9,55.6 49.5,55.6 47.4,57.1 48.2,59.5 46.2,58.0 44.1,59.5 44.9,57.1 42.8,55.6 45.4,55.6" fill="#FFFFFF"/><polygon points="64.6,53.2 65.4,55.6 67.9,55.6 65.9,57.1 66.7,59.5 64.6,58.0 62.6,59.5 63.3,57.1 61.3,55.6 63.8,55.6" fill="#FFFFFF"/><polygon points="83.1,53.2 83.9,55.6 86.4,55.6 84.3,57.1 85.1,59.5 83.1,58.0 81.0,59.5 81.8,57.1 79.7,55.6 82.3,55.6" fill="#FFFFFF"/><polygon points="101.5,53.2 102.3,55.6 104.9,55.6 102.8,57.1 103.6,59.5 101.5,58.0 99.5,59.5 100.3,57.1 98.2,55.6 100.8,55.6" fill="#FFFFFF"/><polygon points="18.5,64.5 19.2,66.9 21.8,66.9 19.7,68.4 20.5,70.8 18.5,69.4 16.4,70.8 17.2,68.4 15.1,66.9 17.7,66.9" fill="#FFFFFF"/><polygon points="36.9,64.5 37.7,66.9 40.3,66.9 38.2,68.4 39.0,70.8 36.9,69.4 34.9,70.8 35.7,68.4 33.6,66.9 36.1,66.9" fill="#FFFFFF"/><polygon points="55.4,64.5 56.2,66.9 58.7,66.9 56.7,68.4 57.4,70.8 55.4,69.4 53.3,70.8 54.1,68.4 52.1,66.9 54.6,66.9" fill="#FFFFFF"/><polygon points="73.8,64.5 74.6,66.9 77.2,66.9 75.1,68.4 75.9,70.8 73.8,69.4 71.8,70.8 72.6,68.4 70.5,66.9 73.1,66.9" fill="#FFFFFF"/><polygon points="92.3,64.5 93.1,66.9 95.6,66.9 93.6,68.4 94.4,70.8 92.3,69.4 90.3,70.8 91.0,68.4 89.0,66.9 91.5,66.9" fill="#FFFFFF"/><polygon points="9.2,75.9 10.0,78.3 12.6,78.3 10.5,79.8 11.3,82.2 9.2,80.7 7.2,82.2 8.0,79.8 5.9,78.3 8.4,78.3" fill="#FFFFFF"/><polygon points="27.7,75.9 28.5,78.3 31.0,78.3 29.0,79.8 29.7,82.2 27.7,80.7 25.6,82.2 26.4,79.8 24.4,78.3 26.9,78.3" fill="#FFFFFF"/><polygon points="46.2,75.9 46.9,78.3 49.5,78.3 47.4,79.8 48.2,82.2 46.2,80.7 44.1,82.2 44.9,79.8 42.8,78.3 45.4,78.3" fill="#FFFFFF"/><polygon points="64.6,75.9 65.4,78.3 67.9,78.3 65.9,79.8 66.7,82.2 64.6,80.7 62.6,82.2 63.3,79.8 61.3,78.3 63.8,78.3" fill="#FFFFFF"/><polygon points="83.1,75.9 83.9,78.3 86.4,78.3 84.3,79.8 85.1,82.2 83.1,80.7 81.0,82.2 81.8,79.8 79.7,78.3 82.3,78.3" fill="#FFFFFF"/><polygon points="101.5,75.9 102.3,78.3 104.9,78.3 102.8,79.8 103.6,82.2 101.5,80.7 99.5,82.2 100.3,79.8 98.2,78.3 100.8,78.3" fill="#FFFFFF"/><polygon points="18.5,87.2 19.2,89.6 21.8,89.6 19.7,91.1 20.5,93.5 18.5,92.0 16.4,93.5 17.2,91.1 15.1,89.6 17.7,89.6" fill="#FFFFFF"/><polygon points="36.9,87.2 37.7,89.6 40.3,89.6 38.2,91.1 39.0,93.5 36.9,92.0 34.9,93.5 35.7,91.1 33.6,89.6 36.1,89.6" fill="#FFFFFF"/><polygon points="55.4,87.2 56.2,89.6 58.7,89.6 56.7,91.1 57.4,93.5 55.4,92.0 53.3,93.5 54.1,91.1 52.1,89.6 54.6,89.6" fill="#FFFFFF"/><polygon points="73.8,87.2 74.6,89.6 77.2,89.6 75.1,91.1 75.9,93.5 73.8,92.0 71.8,93.5 72.6,91.1 70.5,89.6 73.1,89.6" fill="#FFFFFF"/><polygon points="92.3,87.2 93.1,89.6 95.6,89.6 93.6,91.1 94.4,93.5 92.3,92.0 90.3,93.5 91.0,91.1 89.0,89.6 91.5,89.6" fill="#FFFFFF"/><polygon points="9.2,98.5 10.0,100.9 12.6,100.9 10.5,102.4 11.3,104.9 9.2,103.4 7.2,104.9 8.0,102.4 5.9,100.9 8.4,100.9" fill="#FFFFFF"/><polygon points="27.7,98.5 28.5,100.9 31.0,100.9 29.0,102.4 29.7,104.9 27.7,103.4 25.6,104.9 26.4,102.4 24.4,100.9 26.9,100.9" fill="#FFFFFF"/><polygon points="46.2,98.5 46.9,100.9 49.5,100.9 47.4,102.4 48.2,104.9 46.2,103.4 44.1,104.9 44.9,102.4 42.8,100.9 45.4,100.9" fill="#FFFFFF"/><polygon points="64.6,98.5 65.4,100.9 67.9,100.9 65.9,102.4 66.7,104.9 64.6,103.4 62.6,104.9 63.3,102.4 61.3,100.9 63.8,100.9" fill="#FFFFFF"/><polygon points="83.1,98.5 83.9,100.9 86.4,100.9 84.3,102.4 85.1,104.9 83.1,103.4 81.0,104.9 81.8,102.4 79.7,100.9 82.3,100.9" fill="#FFFFFF"/><polygon points="101.5,98.5 102.3,100.9 104.9,100.9 102.8,102.4 103.6,104.9 101.5,103.4 99.5,104.9 100.3,102.4 98.2,100.9 100.8,100.9" fill="#FFFFFF"/></svg>