<svg xmlns="http://www.w3.org/2000/svg" viewBox="0 0 300 200">
<rect width="300" height="200" fill="#C8102E"/>
<rect x="0" y="0" width="75" height="100" fill="#012169"/>
<polygon points="0,0 20,0 75,65 75,100 55,100 0,35" fill="#FFFFFF"/>
<polygon points="55,0 75,0 75,35 20,100 0,100 0,65" fill="#FFFFFF"/>
<polygon points="0,0 10,0 75,70 75,100 65,100 0,30" fill="#C8102E"/>
<polygon points="65,0 75,0 75,30 10,100 0,100 0,70" fill="#C8102E"/>
<rect x="0" y="36" width="75" height="28" fill="#FFFFFF"/>
<rect x="31" y="0" width="19" height="100" fill="#FFFFFF"/>
<rect x="0" y="42" width="75" height="16" fill="#C8102E"/>
<rect x="35" y="0" width="11" height="100" fill="#C8102E"/></svg>