<svg xmlns="http://www.w3.org/2000/svg" viewBox="0 0 300 200"><rect width="300" height="200" fill="#DE2910"/>
<polygon points="38.0,8.0 42.0,20.4 55.1,20.4 44.5,28.1 48.6,40.6 38.0,32.9 27.4,40.6 31.5,28.1 20.9,20.4 34.0,20.4" fill="#FFDE00"/>
<polygon points="70.0,3.0 71.6,7.8 76.7,7.8 72.5,10.8 74.1,15.7 70.0,12.7 65.9,15.7 67.5,10.8 63.3,7.8 68.4,7.8" fill="#FFDE00"/><polygon points="82.0,17.0 83.6,21.8 88.7,21.8 84.5,24.8 86.1,29.7 82.0,26.7 77.9,29.7 79.5,24.8 75.3,21.8 80.4,21.8" fill="#FFDE00"/><polygon points="82.0,35.0 83.6,39.8 88.7,39.8 84.5,42.8 86.1,47.7 82.0,44.7 77.9,47.7 79.5,42.8 75.3,39.8 80.4,39.8" fill="#FFDE00"/><polygon points="70.0,47.0 71.6,51.8 76.7,51.8 72.5,54.8 74.1,59.7 70.0,56.7 65.9,59.7 67.5,54.8 63.3,51.8 68.4,51.8" fill="#FFDE00"/></svg>